<svg width="371" height="44" viewBox="0 0 371 44" fill="none" xmlns="http://www.w3.org/2000/svg">
<path d="M49.7747 20.1165C49.7747 11.6009 54.6198 6.93938 65.925 6.93938C76.1657 6.93938 81.3044 10.8301 81.9651 18.2445H75.2481C74.6241 14.0969 71.4308 12.4818 65.925 12.4818C59.208 12.4818 56.3817 14.8677 56.3817 20.1165C56.3817 25.402 59.2447 27.8246 65.925 27.8246C71.3941 27.8246 74.6241 26.1729 75.2481 21.9885H81.9651C81.3044 29.4396 76.1657 33.3671 65.925 33.3671C54.6198 33.3671 49.7747 28.6688 49.7747 20.1165ZM114.398 16.7396C114.398 20.924 112.269 24.0073 108.819 25.3653L113.554 33H105.773L101.625 26.1361H90.9805V33H84.3736V7.30643H104.561C110.398 7.30643 114.398 11.0136 114.398 16.7396ZM90.9805 12.8489V20.5937H102.726C104.708 20.5937 107.791 20.5937 107.791 16.7396C107.791 12.8489 104.708 12.8489 102.726 12.8489H90.9805ZM149.078 20.1165C149.078 29.0358 144.196 33.3671 132.928 33.3671C121.622 33.3671 116.777 29.0726 116.777 20.1165V7.30643H123.384V20.1165C123.384 23.7136 124.375 27.8246 132.928 27.8246C141.48 27.8246 142.471 23.6769 142.471 20.1165V7.30643H149.078V20.1165ZM170.48 7.30643C177.123 7.30643 182.959 11.4174 182.959 20.1532C182.959 28.889 177.123 33 170.48 33H151.834V7.30643H170.48ZM167.984 27.4575C172.976 27.4575 176.353 26.3931 176.353 20.1532C176.353 13.9133 172.976 12.8489 167.984 12.8489H158.44V27.4575H167.984ZM218.044 23.5301V19.2356H234.341V33H229.46L229.166 28.9624C226.744 31.6052 222.889 33.3671 217.42 33.3671C207.951 33.3671 202.151 28.6688 202.151 20.1532C202.151 11.6376 207.951 6.93938 218.522 6.93938C228.799 6.93938 233.938 10.9402 234.341 17.3269H227.624C227.257 15.3816 225.496 12.4818 218.522 12.4818C209.933 12.4818 208.758 17.2168 208.758 20.3C208.758 23.42 209.969 28.265 218.522 28.265C224.908 28.265 227.478 25.4755 227.624 23.5301H218.044ZM266.954 16.7396C266.954 20.924 264.825 24.0073 261.375 25.3653L266.11 33H258.328L254.181 26.1361H243.536V33H236.929V7.30643H257.117C262.953 7.30643 266.954 11.0136 266.954 16.7396ZM243.536 12.8489V20.5937H255.282C257.264 20.5937 260.347 20.5937 260.347 16.7396C260.347 12.8489 257.264 12.8489 255.282 12.8489H243.536ZM284.901 33.3671C273.596 33.3671 268.751 28.6688 268.751 20.1165C268.751 11.6009 273.596 6.93938 284.901 6.93938C296.17 6.93938 301.051 11.6376 301.051 20.1165C301.051 28.6321 296.17 33.3671 284.901 33.3671ZM284.901 27.8246C291.765 27.8246 294.444 25.3653 294.444 20.1165C294.444 14.9044 291.802 12.4818 284.901 12.4818C278 12.4818 275.358 14.8677 275.358 20.1165C275.358 25.402 278.037 27.8246 284.901 27.8246ZM335.937 20.1165C335.937 29.0358 331.055 33.3671 319.787 33.3671C308.481 33.3671 303.636 29.0726 303.636 20.1165V7.30643H310.243V20.1165C310.243 23.7136 311.234 27.8246 319.787 27.8246C328.339 27.8246 329.33 23.6769 329.33 20.1165V7.30643H335.937V20.1165ZM358.88 7.30643C364.717 7.30643 368.717 11.0136 368.717 16.7396C368.717 22.4656 364.717 26.1361 358.88 26.1361H345.3V33H338.693V7.30643H358.88ZM357.045 20.5937C359.027 20.5937 362.11 20.5937 362.11 16.7396C362.11 12.8489 359.027 12.8489 357.045 12.8489H345.3V20.5937H357.045Z" fill="white"/>
<path d="M37.8815 2.66992H0V14.5756H25.9759V41.6338H37.8815V2.66992Z" fill="#990000"/>
<circle cx="11.9056" cy="29.7279" r="11.9056" fill="white"/>
</svg>
