<svg width="371" height="44" viewBox="0 0 371 44" fill="none" xmlns="http://www.w3.org/2000/svg">
<path d="M49.7745 20.1166C49.7745 11.601 54.6196 6.93948 65.9247 6.93948C76.1655 6.93948 81.3042 10.8302 81.9649 18.2447H75.2478C74.6239 14.097 71.4305 12.482 65.9247 12.482C59.2077 12.482 56.3814 14.8678 56.3814 20.1166C56.3814 25.4021 59.2444 27.8247 65.9247 27.8247C71.3938 27.8247 74.6239 26.173 75.2478 21.9886H81.9649C81.3042 29.4397 76.1655 33.3672 65.9247 33.3672C54.6196 33.3672 49.7745 28.6689 49.7745 20.1166ZM114.398 16.7397C114.398 20.9241 112.269 24.0074 108.819 25.3654L113.554 33.0001H105.772L101.625 26.1362H90.9803V33.0001H84.3734V7.30653H104.561C110.397 7.30653 114.398 11.0137 114.398 16.7397ZM90.9803 12.849V20.5938H102.726C104.708 20.5938 107.791 20.5938 107.791 16.7397C107.791 12.849 104.708 12.849 102.726 12.849H90.9803ZM149.078 20.1166C149.078 29.036 144.196 33.3672 132.927 33.3672C121.622 33.3672 116.777 29.0727 116.777 20.1166V7.30653H123.384V20.1166C123.384 23.7137 124.375 27.8247 132.927 27.8247C141.48 27.8247 142.471 23.677 142.471 20.1166V7.30653H149.078V20.1166ZM170.48 7.30653C177.123 7.30653 182.959 11.4175 182.959 20.1533C182.959 28.8891 177.123 33.0001 170.48 33.0001H151.833V7.30653H170.48ZM167.984 27.4576C172.975 27.4576 176.352 26.3932 176.352 20.1533C176.352 13.9134 172.975 12.849 167.984 12.849H158.44V27.4576H167.984ZM218.044 23.5302V19.2357H234.341V33.0001H229.459L229.166 28.9625C226.743 31.6053 222.889 33.3672 217.42 33.3672C207.95 33.3672 202.151 28.6689 202.151 20.1533C202.151 11.6377 207.95 6.93948 218.521 6.93948C228.799 6.93948 233.937 10.9403 234.341 17.327H227.624C227.257 15.3817 225.495 12.482 218.521 12.482C209.932 12.482 208.758 17.2169 208.758 20.3001C208.758 23.4201 209.969 28.2651 218.521 28.2651C224.908 28.2651 227.477 25.4756 227.624 23.5302H218.044ZM266.954 16.7397C266.954 20.9241 264.825 24.0074 261.375 25.3654L266.109 33.0001H258.328L254.18 26.1362H243.536V33.0001H236.929V7.30653H257.117C262.953 7.30653 266.954 11.0137 266.954 16.7397ZM243.536 12.849V20.5938H255.281C257.264 20.5938 260.347 20.5938 260.347 16.7397C260.347 12.849 257.264 12.849 255.281 12.849H243.536ZM284.901 33.3672C273.596 33.3672 268.751 28.6689 268.751 20.1166C268.751 11.601 273.596 6.93948 284.901 6.93948C296.169 6.93948 301.051 11.6377 301.051 20.1166C301.051 28.6322 296.169 33.3672 284.901 33.3672ZM284.901 27.8247C291.765 27.8247 294.444 25.3654 294.444 20.1166C294.444 14.9045 291.801 12.482 284.901 12.482C278 12.482 275.357 14.8678 275.357 20.1166C275.357 25.4021 278.037 27.8247 284.901 27.8247ZM335.937 20.1166C335.937 29.036 331.055 33.3672 319.786 33.3672C308.481 33.3672 303.636 29.0727 303.636 20.1166V7.30653H310.243V20.1166C310.243 23.7137 311.234 27.8247 319.786 27.8247C328.339 27.8247 329.33 23.677 329.33 20.1166V7.30653H335.937V20.1166ZM358.88 7.30653C364.716 7.30653 368.717 11.0137 368.717 16.7397C368.717 22.4657 364.716 26.1362 358.88 26.1362H345.299V33.0001H338.692V7.30653H358.88ZM357.045 20.5938C359.027 20.5938 362.11 20.5938 362.11 16.7397C362.11 12.849 359.027 12.849 357.045 12.849H345.299V20.5938H357.045Z" fill="white"/>
<path d="M37.8815 2.66954H0V14.5752H25.9759V41.6334H37.8815V2.66954Z" fill="#990000"/>
<circle cx="11.9056" cy="29.7277" r="11.9056" fill="white"/>
</svg>
