<svg width="1579" height="550" viewBox="0 0 1579 550" fill="none" xmlns="http://www.w3.org/2000/svg">
<rect width="1579" height="549.603" rx="30" fill="white"/>
<path d="M244.851 274.5C244.851 296.315 226.975 314 204.925 314C182.875 314 165 296.315 165 274.5C165 252.685 182.875 235 204.925 235C226.975 235 244.851 252.685 244.851 274.5ZM181.927 274.5C181.927 287.066 192.224 297.253 204.925 297.253C217.627 297.253 227.923 287.066 227.923 274.5C227.923 261.934 217.627 251.747 204.925 251.747C192.224 251.747 181.927 261.934 181.927 274.5Z" fill="#0085FF"/>
<path d="M271.311 264.373H270.479C260.456 264.373 259.308 259.836 259.308 257.28V256.964H265.74C265.826 257.912 266.229 260.037 270.766 260.037H270.967C275.418 260.037 275.992 258.687 275.992 257.481C275.992 256.218 275.159 255.385 271.627 255.27L268.784 255.184C261.777 254.983 259.538 252.169 259.538 248.952V248.694C259.538 245.392 261.318 242.376 270.163 242.376H271.139C280.587 242.376 281.879 245.822 281.879 248.637V248.952H275.533C275.389 248.005 274.844 246.598 270.737 246.598H270.45C266.659 246.598 265.769 247.316 265.769 248.493C265.769 249.584 266.544 250.388 269.904 250.532L272.862 250.647C280.472 250.934 282.31 253.432 282.31 256.907V257.252C282.31 260.382 280.874 264.373 271.311 264.373ZM301.21 255.643L297.333 246.942L293.571 255.643H301.21ZM304.943 264L303.191 260.037H291.647L289.924 264H283.98L293.456 242.635H301.382L311.29 264H304.943ZM327.948 264H320.165L310.258 242.635H317.15L324.1 258.831L331.078 242.635H337.51L327.948 264ZM340.514 264V242.635H351.456C362.598 242.635 365.153 248.235 365.153 252.571V253.432C365.153 257.912 363.201 264 351.484 264H340.514ZM346.43 247.373V259.233H351.197C358.376 259.233 359.008 255.73 359.008 253.317V253.145C359.008 250.762 358.319 247.373 351.197 247.373H346.43ZM381.316 242.29H382.58C392.573 242.29 395.416 248.177 395.416 252.829V253.691C395.416 258.285 392.573 264.345 382.58 264.345H381.316C371.323 264.345 368.48 258.285 368.48 253.691V252.829C368.48 248.177 371.323 242.29 381.316 242.29ZM389.271 253.059C389.271 250.417 387.978 247.172 381.948 247.172C375.975 247.172 374.625 250.417 374.625 253.059V253.461C374.625 256.045 376.061 259.434 381.948 259.434C387.95 259.434 389.271 256.045 389.271 253.461V253.059ZM408.044 264V242.635H413.959V250.561H425.877V242.635H431.792V264H425.877V255.414H413.959V264H408.044ZM448.958 242.29H450.221C460.215 242.29 463.057 248.177 463.057 252.829V253.691C463.057 258.285 460.215 264.345 450.221 264.345H448.958C438.964 264.345 436.121 258.285 436.121 253.691V252.829C436.121 248.177 438.964 242.29 448.958 242.29ZM456.912 253.059C456.912 250.417 455.62 247.172 449.589 247.172C443.616 247.172 442.267 250.417 442.267 253.059V253.461C442.267 256.045 443.702 259.434 449.589 259.434C455.591 259.434 456.912 256.045 456.912 253.461V253.059ZM488.44 264H466.587V259.894L479.682 247.459H466.673V242.635H488.325V246.741L474.685 259.118H488.44V264ZM493.184 264V242.635H501.053L507.859 257.108L514.865 242.635H522.246V264H516.474V250.015L509.984 264H505.36L498.87 250.015V264H493.184ZM542.442 255.643L538.565 246.942L534.803 255.643H542.442ZM546.175 264L544.423 260.037H532.879L531.156 264H525.212L534.688 242.635H542.614L552.521 264H546.175ZM566.489 264.316H566.029C556.61 264.316 553.652 258.429 553.652 253.633V252.858C553.652 248.321 556.409 242.348 566.144 242.348H567.12C576.425 242.348 579.382 246.425 579.382 249.929V249.986H573.266C573.065 249.441 572.175 247.172 566.661 247.172C561.406 247.172 559.798 250.13 559.798 253.001V253.375C559.798 256.16 561.607 259.491 566.862 259.491C571.916 259.491 573.036 256.792 573.122 256.16H567.321V252.341H579.641V264H574.931C574.874 263.253 574.501 261.731 574.213 261.042C573.725 261.645 571.543 264.316 566.489 264.316ZM584.579 242.635H590.494V258.975H603.56V264H584.579V242.635ZM622.647 255.643L618.77 246.942L615.008 255.643H622.647ZM626.38 264L624.628 260.037H613.084L611.361 264H605.417L614.893 242.635H622.819L632.726 264H626.38ZM641.59 247.344V251.882H649.832C652.244 251.882 652.904 250.848 652.904 249.613V249.555C652.904 248.349 652.244 247.344 649.832 247.344H641.59ZM654.599 253.719C657.499 254.38 659.251 256.132 659.251 259.262V261.473C659.251 263.081 659.423 263.512 659.595 263.856V264H653.479C653.392 263.856 653.278 263.454 653.278 262.507V260.755C653.278 257.998 652.272 256.735 649.286 256.735H641.59V264H635.674V242.635H650.061C658.188 242.635 659.107 246.023 659.107 248.349V248.637C659.107 251.307 657.269 253.116 654.599 253.719Z" fill="#0085FF"/>
<path d="M271.713 303.316C261.232 303.316 260.026 296.74 260.026 292.49V281.635H265.941V292.346C265.941 294.787 266.631 298.29 272.058 298.29H272.202C277.658 298.29 278.261 294.787 278.261 292.346V281.635H284.148V292.49C284.148 296.768 282.626 303.316 272.546 303.316H271.713ZM302 303.316H300.679C290.915 303.316 288.331 297.056 288.331 292.691V291.829C288.331 287.378 290.915 281.319 300.679 281.319H302C310.96 281.319 313.946 285.713 313.946 289.762V289.819H307.858C307.772 289.216 306.997 286.201 301.34 286.201C296.113 286.201 294.476 289.13 294.476 292.001V292.404C294.476 295.045 296.142 298.405 301.368 298.405C307.054 298.405 307.772 295.304 307.858 294.643H313.946V294.73C313.946 298.635 311.075 303.316 302 303.316ZM318.192 303V281.635H324.107V289.561H336.025V281.635H341.94V303H336.025V294.414H324.107V303H318.192ZM358.761 303.316C348.279 303.316 347.073 296.74 347.073 292.49V281.635H352.989V292.346C352.989 294.787 353.678 298.29 359.106 298.29H359.249C364.705 298.29 365.308 294.787 365.308 292.346V281.635H371.195V292.49C371.195 296.768 369.673 303.316 359.594 303.316H358.761ZM394.849 303L382.098 289.159V303H376.326V281.635H382.414L394.906 295.39V281.635H400.649V303H394.849ZM414.241 303V281.635H425.182C436.324 281.635 438.88 287.235 438.88 291.571V292.432C438.88 296.912 436.928 303 425.211 303H414.241ZM420.157 286.373V298.233H424.924C432.103 298.233 432.735 294.73 432.735 292.317V292.145C432.735 289.762 432.046 286.373 424.924 286.373H420.157ZM457.329 294.643L453.452 285.942L449.691 294.643H457.329ZM461.062 303L459.311 299.037H447.767L446.043 303H440.099L449.576 281.635H457.501L467.409 303H461.062ZM481.078 303.373H480.245C470.223 303.373 469.075 298.836 469.075 296.28V295.964H475.507C475.593 296.912 475.995 299.037 480.533 299.037H480.734C485.185 299.037 485.759 297.687 485.759 296.481C485.759 295.218 484.926 294.385 481.394 294.27L478.551 294.184C471.544 293.983 469.304 291.169 469.304 287.952V287.694C469.304 284.392 471.085 281.376 479.929 281.376H480.906C490.354 281.376 491.646 284.822 491.646 287.637V287.952H485.299C485.156 287.005 484.61 285.598 480.504 285.598H480.217C476.426 285.598 475.536 286.316 475.536 287.493C475.536 288.584 476.311 289.388 479.671 289.532L482.629 289.647C490.239 289.934 492.077 292.432 492.077 295.907V296.252C492.077 299.382 490.641 303.373 481.078 303.373ZM503.022 303V286.517H494.752V281.635H517.18V286.517H508.909V303H503.022ZM532.688 303.316C522.206 303.316 521 296.74 521 292.49V281.635H526.916V292.346C526.916 294.787 527.605 298.29 533.033 298.29H533.176C538.632 298.29 539.235 294.787 539.235 292.346V281.635H545.122V292.49C545.122 296.768 543.6 303.316 533.521 303.316H532.688ZM556.169 286.344V290.882H564.41C566.823 290.882 567.483 289.848 567.483 288.613V288.555C567.483 287.349 566.823 286.344 564.41 286.344H556.169ZM569.177 292.719C572.078 293.38 573.83 295.132 573.83 298.262V300.473C573.83 302.081 574.002 302.512 574.174 302.856V303H568.058C567.971 302.856 567.857 302.454 567.857 301.507V299.755C567.857 296.998 566.851 295.735 563.865 295.735H556.169V303H550.253V281.635H564.64C572.767 281.635 573.686 285.023 573.686 287.349V287.637C573.686 290.307 571.848 292.116 569.177 292.719Z" fill="#001318"/>
<path d="M931.784 264.373H930.951C920.929 264.373 919.78 259.836 919.78 257.28V256.964H926.213C926.299 257.912 926.701 260.037 931.238 260.037H931.439C935.891 260.037 936.465 258.687 936.465 257.481C936.465 256.218 935.632 255.385 932.1 255.27L929.257 255.184C922.25 254.983 920.01 252.169 920.01 248.952V248.694C920.01 245.392 921.791 242.376 930.635 242.376H931.612C941.06 242.376 942.352 245.822 942.352 248.637V248.952H936.005C935.862 248.005 935.316 246.598 931.21 246.598H930.923C927.132 246.598 926.242 247.316 926.242 248.493C926.242 249.584 927.017 250.388 930.377 250.532L933.335 250.647C940.945 250.934 942.783 253.432 942.783 256.907V257.252C942.783 260.382 941.347 264.373 931.784 264.373ZM961.683 255.643L957.806 246.942L954.044 255.643H961.683ZM965.416 264L963.664 260.037H952.12L950.397 264H944.453L953.929 242.635H961.855L971.762 264H965.416ZM988.42 264H980.638L970.731 242.635H977.623L984.572 258.831L991.551 242.635H997.983L988.42 264ZM1000.99 264V242.635H1011.93C1023.07 242.635 1025.63 248.235 1025.63 252.571V253.432C1025.63 257.912 1023.67 264 1011.96 264H1000.99ZM1006.9 247.373V259.233H1011.67C1018.85 259.233 1019.48 255.73 1019.48 253.317V253.145C1019.48 250.762 1018.79 247.373 1011.67 247.373H1006.9ZM1041.79 242.29H1043.05C1053.05 242.29 1055.89 248.177 1055.89 252.829V253.691C1055.89 258.285 1053.05 264.345 1043.05 264.345H1041.79C1031.8 264.345 1028.95 258.285 1028.95 253.691V252.829C1028.95 248.177 1031.8 242.29 1041.79 242.29ZM1049.74 253.059C1049.74 250.417 1048.45 247.172 1042.42 247.172C1036.45 247.172 1035.1 250.417 1035.1 253.059V253.461C1035.1 256.045 1036.53 259.434 1042.42 259.434C1048.42 259.434 1049.74 256.045 1049.74 253.461V253.059ZM1066.13 242.635V264H1060.22V242.635H1066.13ZM1089.93 264L1077.18 250.159V264H1071.4V242.635H1077.49L1089.98 256.39V242.635H1095.73V264H1089.93ZM1112.91 264.316H1112.45C1103.03 264.316 1100.07 258.429 1100.07 253.633V252.858C1100.07 248.321 1102.83 242.348 1112.56 242.348H1113.54C1122.84 242.348 1125.8 246.425 1125.8 249.929V249.986H1119.68C1119.48 249.441 1118.59 247.172 1113.08 247.172C1107.82 247.172 1106.22 250.13 1106.22 253.001V253.375C1106.22 256.16 1108.03 259.491 1113.28 259.491C1118.34 259.491 1119.46 256.792 1119.54 256.16H1113.74V252.341H1126.06V264H1121.35C1121.29 263.253 1120.92 261.731 1120.63 261.042C1120.14 261.645 1117.96 264.316 1112.91 264.316ZM1136.91 242.635V264H1131V242.635H1136.91ZM1163.52 264H1141.67V259.894L1154.76 247.459H1141.76V242.635H1163.41V246.741L1149.77 259.118H1163.52V264ZM1186.79 264L1174.04 250.159V264H1168.27V242.635H1174.36L1186.85 256.39V242.635H1192.59V264H1186.79ZM1203.8 242.635V264H1197.88V242.635H1203.8ZM1217.37 264V242.635H1228.31C1239.46 242.635 1242.01 248.235 1242.01 252.571V253.432C1242.01 257.912 1240.06 264 1228.34 264H1217.37ZM1223.29 247.373V259.233H1228.05C1235.23 259.233 1235.87 255.73 1235.87 253.317V253.145C1235.87 250.762 1235.18 247.373 1228.05 247.373H1223.29ZM1258.17 242.29H1259.44C1269.43 242.29 1272.27 248.177 1272.27 252.829V253.691C1272.27 258.285 1269.43 264.345 1259.44 264.345H1258.17C1248.18 264.345 1245.34 258.285 1245.34 253.691V252.829C1245.34 248.177 1248.18 242.29 1258.17 242.29ZM1266.13 253.059C1266.13 250.417 1264.84 247.172 1258.81 247.172C1252.83 247.172 1251.48 250.417 1251.48 253.059V253.461C1251.48 256.045 1252.92 259.434 1258.81 259.434C1264.81 259.434 1266.13 256.045 1266.13 253.461V253.059ZM1282.52 242.635V264H1276.6V242.635H1282.52ZM1287.79 264V242.635H1295.66L1302.46 257.108L1309.47 242.635H1316.85V264H1311.08V250.015L1304.59 264H1299.97L1293.48 250.015V264H1287.79ZM1328.06 242.635V264H1322.14V242.635H1328.06ZM1341.23 264V256.189L1330.63 242.635H1337.96L1344.36 251.106L1350.76 242.635H1357.37L1347.15 256.218V264H1341.23Z" fill="#0085FF"/>
<path d="M939.164 303L926.414 289.159V303H920.642V281.635H926.73L939.222 295.39V281.635H944.965V303H939.164ZM965.16 294.643L961.283 285.942L957.521 294.643H965.16ZM968.893 303L967.142 299.037H955.597L953.874 303H947.93L957.407 281.635H965.332L975.24 303H968.893ZM999.524 303H977.671V298.894L990.766 286.459H977.757V281.635H999.409V285.741L985.769 298.118H999.524V303ZM1015.88 281.29H1017.14C1027.13 281.29 1029.98 287.177 1029.98 291.829V292.691C1029.98 297.285 1027.13 303.345 1017.14 303.345H1015.88C1005.88 303.345 1003.04 297.285 1003.04 292.691V291.829C1003.04 287.177 1005.88 281.29 1015.88 281.29ZM1023.83 292.059C1023.83 289.417 1022.54 286.172 1016.51 286.172C1010.54 286.172 1009.19 289.417 1009.19 292.059V292.461C1009.19 295.045 1010.62 298.434 1016.51 298.434C1022.51 298.434 1023.83 295.045 1023.83 292.461V292.059ZM1040.22 286.344V290.882H1048.46C1050.87 290.882 1051.53 289.848 1051.53 288.613V288.555C1051.53 287.349 1050.87 286.344 1048.46 286.344H1040.22ZM1053.23 292.719C1056.13 293.38 1057.88 295.132 1057.88 298.262V300.473C1057.88 302.081 1058.05 302.512 1058.22 302.856V303H1052.11C1052.02 302.856 1051.91 302.454 1051.91 301.507V299.755C1051.91 296.998 1050.9 295.735 1047.91 295.735H1040.22V303H1034.3V281.635H1048.69C1056.82 281.635 1057.74 285.023 1057.74 287.349V287.637C1057.74 290.307 1055.9 292.116 1053.23 292.719ZM1077.39 294.643L1073.51 285.942L1069.75 294.643H1077.39ZM1081.12 303L1079.37 299.037H1067.83L1066.11 303H1060.16L1069.64 281.635H1077.56L1087.47 303H1081.12ZM1094.93 303V286.517H1086.66V281.635H1109.09V286.517H1100.81V303H1094.93ZM1131.52 307.451V303.287C1122.67 302.598 1120.4 296.797 1120.4 292.691V291.829C1120.4 287.407 1122.84 281.29 1133.27 281.29H1134.53C1144.9 281.29 1147.4 287.436 1147.4 291.829V292.691C1147.4 296.567 1145.39 301.995 1137.66 303.115L1140.94 307.451H1131.52ZM1141.25 292.059C1141.25 289.561 1140.02 286.172 1133.9 286.172C1127.84 286.172 1126.55 289.417 1126.55 292.059V292.461C1126.55 294.988 1127.93 298.434 1133.9 298.434C1139.96 298.434 1141.25 295.045 1141.25 292.461V292.059ZM1157.64 281.635V303H1151.72V281.635H1157.64ZM1162.91 281.635H1168.83V297.975H1181.89V303H1162.91V281.635ZM1191.85 281.635V303H1185.94V281.635H1191.85ZM1215.65 303L1202.9 289.159V303H1197.12V281.635H1203.21L1215.7 295.39V281.635H1221.45V303H1215.65ZM1238.63 303.316H1238.17C1228.75 303.316 1225.79 297.429 1225.79 292.633V291.858C1225.79 287.321 1228.55 281.348 1238.28 281.348H1239.26C1248.56 281.348 1251.52 285.425 1251.52 288.929V288.986H1245.4C1245.2 288.441 1244.31 286.172 1238.8 286.172C1233.54 286.172 1231.94 289.13 1231.94 292.001V292.375C1231.94 295.16 1233.75 298.491 1239 298.491C1244.05 298.491 1245.17 295.792 1245.26 295.16H1239.46V291.341H1251.78V303H1247.07C1247.01 302.253 1246.64 300.731 1246.35 300.042C1245.86 300.645 1243.68 303.316 1238.63 303.316Z" fill="#001318"/>
<circle cx="789.592" cy="275.339" r="67.5923" fill="#990000"/>
<path d="M772.413 249.425L817.289 275.335L772.413 301.244L772.413 249.425Z" fill="white"/>
</svg>
